/* XPM */
static char * file_dir_xpm[] = {
"16 16 3 1",
" 	c #FFFFFFFFFFFF",
".	c #084208420842",
"X	c #FFFFFFFF0000",
"                ",
"   .....        ",
"  .XXXXX.       ",
"................",
".XXXXXXXXXXXXXX.",
".XXXXXXXXXXXXXX.",
".XXXXXXXXXXXXXX.",
".XXXXXXXXXXXXXX.",
".XXXXXXXXXXXXXX.",
".XXXXXXXXXXXXXX.",
".XXXXXXXXXXXXXX.",
".XXXXXXXXXXXXXX.",
".XXXXXXXXXXXXXX.",
"................",
"                ",
"                "};
