/* XPM */
static char * teddoc_xpm[] = {
"64 64 5 1",
" 	c #FFFFFFFFFFFF",
".	c #FAFA13134040",
"X	c #6C6C6C6C6C6C",
"o	c #FFFFFFFF0000",
"O	c #000000000000",
"                                                                ",
"                                                                ",
"                                                                ",
"                                                                ",
"                                                                ",
"                                                                ",
"                                                                ",
"                                                                ",
"                                                                ",
"                                                                ",
"                                                                ",
"                           ...........              ....        ",
"                           ..  ...  ..               ...        ",
"                  XXXXXXXXX.XXX...XXX.XXX            ...        ",
"                  X            ...      X            ..         ",
"                  X           ...       X           ...         ",
"               XXXXXXXXXXXXXXX...XXXXX  ....     .. ...         ",
"               X              ...    X... ...  ... ....         ",
"               X          o   ...    X..X ...  ..   ..          ",
"               X  O O O       ..     ...X...  ...   ..          ",
"               X  OOOOOOO    ...     .....    ...   ..          ",
"               X             ...     ...X  .. ...  ...          ",
"               X             ...     .... ..  ... .... .        ",
"               X  OO OOOO OO.....    X.....    .... ...         ",
"               X                     X  X                       ",
"               X  OOOOO OOO OOOOOO   X  X                       ",
"               X                     X  X                       ",
"               X  OOO OOO OO OO OO   X  X                       ",
"               X                     X  X                       ",
"               X  OOO OOO OO OO OO   X  X                       ",
"               X                     X  X                       ",
"               X  OO OOOO O O        X  X                       ",
"               X                     X  X                       ",
"               X                     X  X                       ",
"               X                     X  X                       ",
"               X                     X  X                       ",
"               X                     X  X                       ",
"               X  OOO OOO OOOO OO    X  X                       ",
"               X                     X  X                       ",
"               X  OO OO OOO OOO OO   X  X                       ",
"               X                     X  X                       ",
"               X  OO OOO OOO OOO O   X  X                       ",
"               X                     X  X                       ",
"               X  OOO OOO OOO OO O   X  X                       ",
"               X                     X  X                       ",
"               X  OOOO OOOO          X  X                       ",
"               X                     XXXX                       ",
"               X                     X                          ",
"               X                     X                          ",
"               XXXXXXXXXXXXXXXXXXXXXXX                          ",
"                                                                ",
"                                                                ",
"                                                                ",
"                                                                ",
"                                                                ",
"                                                                ",
"                                                                ",
"                                                                ",
"                                                                ",
"                                                                ",
"                                                                ",
"                                                                ",
"                                                                ",
"                                                                "};
