/* XPM */
static char * tedfont_xpm[] = {
"64 64 5 1",
" 	c #FFFFFFFFFFFF",
".	c #FAFA13134040",
"X	c #000000000000",
"o	c #FFFFFFFF0000",
"O	c #6C6C6C6C6C6C",
"                                                                ",
"                                                                ",
"                                                                ",
"                                                                ",
"                                                                ",
"                                                                ",
"                                                                ",
"                                                                ",
"                                                                ",
"                                                                ",
"                                                                ",
"                          ...........              ....         ",
"                          ..  ...  ..               ...         ",
"                          .   ...   .               ...         ",
"           XXXXXXX            ...                   ..          ",
"            XX   XX          ...                   ...          ",
"            XX   XX          ...       ....     .. ...          ",
"            XX   XX          ...     ... ...  ... ....          ",
"            XXXXXX       o   ...     ..  ...  ..   ..           ",
"            XX   XX          ..     ... ...  ...   ..           ",
"            XX   XX         ...     .....    ...   ..           ",
"            XX   XX         ...     ...   .. ...  ...           ",
"            XX   XX         ...     .... ..  ... .... .         ",
"           XXXXXXX         .....     .....    .... ...          ",
"                                                                ",
"                                                                ",
"                                                                ",
"                                                                ",
"                                               OOO              ",
"                                               OOO              ",
"                                                                ",
"                 OOOOOOOOOOO                                    ",
"                 OOOOOOOOOOO                                    ",
"                 OO                          OOOO               ",
"                 OO                           OOO               ",
"                 OO                           OOO               ",
"                 OO                           OO                ",
"                 OO                           OO                ",
"                 OO                          OOO                ",
"                 OO                          OOO O              ",
"                 OOOOOOOOOO                   OOO               ",
"                 OOOOOOOOOO                                     ",
"                 OO                                             ",
"                 OO             OOO                             ",
"                 OO            O   O                            ",
"                 OO            O   O                            ",
"                 OO            O   O                            ",
"                 OO            O   O                            ",
"                 OO            O   O                            ",
"                 OO             OOO                             ",
"                                                                ",
"                                                                ",
"                                                                ",
"                                                                ",
"                                                                ",
"                                                                ",
"                                                                ",
"                                                                ",
"                                                                ",
"                                                                ",
"                                                                ",
"                                                                ",
"                                                                ",
"                                                                "};
