/* XPM */
static char * tedfind_xpm[] = {
"64 64 4 1",
" 	c #FFFFFFFFFFFF",
".	c #FAFA13134040",
"X	c #000000000000",
"o	c #6C6C6C6C6C6C",
"                                                                ",
"                                                                ",
"                                                                ",
"                                                                ",
"                                                                ",
"                                                                ",
"                                                                ",
"                                                                ",
"                                                                ",
"                                                                ",
"                                                                ",
"                          ...........              ....         ",
"                          ..  ...  ..               ...         ",
"                          .   ...   .               ...         ",
"                              ...                   ..          ",
"                             ...                   ...          ",
"                      XXXXXX ...       ....     .. ...          ",
"                   XXX      X...     ... ...  ... ....          ",
"                  X      .   ...     ..  ...  ..   ..           ",
"                 X           .. X   ... ...  ...   ..           ",
"                X           ...  X  .....    ...   ..           ",
"               X            ...   X ...   .. ...  ...           ",
"               X       XXXX ...   X .... ..  ... .... .         ",
"              o       X   X.....   X .....    .... ...          ",
"              o       XX   X       X                            ",
"             X        XX  XX        X                           ",
"             X            XX        X                           ",
"             X           XX         X                           ",
"             X           XX         X                           ",
"             X          XX          X                           ",
"             X          X           X                           ",
"             X          X           X                           ",
"              X                    X                            ",
"              X         XX         X                            ",
"               X        XX        Xo                            ",
"               X                 Xoo                            ",
"                X               Xoooo                           ",
"                 X              Xooooo                          ",
"                  X            Xooooooo                         ",
"                   XXX      oXXooooooooo                        ",
"                      XXXXXX      ooooooo                       ",
"                                   ooooooo                      ",
"                                    ooooooo                     ",
"                                     ooooooo                    ",
"                                      ooooooo                   ",
"                                       ooooooo                  ",
"                                        ooooooo                 ",
"                                         ooooooo                ",
"                                          ooooo                 ",
"                                           ooo                  ",
"                                            o                   ",
"                                                                ",
"                                                                ",
"                                                                ",
"                                                                ",
"                                                                ",
"                                                                ",
"                                                                ",
"                                                                ",
"                                                                ",
"                                                                ",
"                                                                ",
"                                                                ",
"                                                                "};
