/* XPM */
static char * tedmail_xpm[] = {
"64 64 5 1",
" 	c #FFFFFFFFFFFF",
".	c #FAFA13134040",
"X	c #6C6C6C6C6C6C",
"o	c #C4C4C4C4C4C4",
"O	c #FFFFFFFF0000",
"                                                                ",
"                                                                ",
"                                                                ",
"                                                                ",
"                                                                ",
"                                                                ",
"                                                                ",
"                                                                ",
"                                                                ",
"                                                                ",
"                                                                ",
"                           ...........              ....        ",
"                           ..  ...  ..               ...        ",
"                           .   ...   .               ...        ",
"          XXXXXXXXXXXXXXXXXXXXX...XXXXXXXXXXXXXXXXXXX..         ",
"          XXoooooooooooooooooo...ooooooooooooooooooo...         ",
"          XoXooooooooooooooooo...ooooooo....ooooo..X...         ",
"          XooXoooooooooooooooo...ooooo...o...oo...o....         ",
"          XooXooooooooooooOooo...ooooo..oo...oo..oXo..          ",
"          XoooXooooooooooooooo..ooooo...o...oo...Xoo..          ",
"          XooooXooooooooooooo...ooooo.....oooo...ooo..          ",
"          XoooooXoooooooooooo...ooooo...ooo..o...oo...          ",
"          XooooooXooooooooooo...ooooo....o..oo...o.... .        ",
"          XoooooooXooooooooo.....ooooo.....oooX....o...         ",
"          XoooooooXooooooooooooooooooooooooooXoooooooX          ",
"          XooooooooXooooooooooooooooooooooooXooooooooX          ",
"          XoooooooooXooooooooooooooooooooooXoooooooooX          ",
"          XooooooooooXooooooooooooooooooooXooooooooooX          ",
"          XoooooooooooXoooooooooooooooooooXooooooooooX          ",
"          XooooooooooooXoooooooooooooooooXoooooooooooX          ",
"          XoooooooooooooXoooooooooooooooXooooooooooooX          ",
"          XooooooooooooooXoooooooooooooXoooooooooooooX          ",
"          XoooooooooooooXXooooooooooooXoXooooooooooooX          ",
"          XooooooooooooXooXoooooooooooXooXoooooooooooX          ",
"          XoooooooooooXooooX..........ooooXooooooooooX          ",
"          XooooooooooXoooooo.        .oooooXoooooooooX          ",
"          XoooooooooXooooooo. XXXXX  .oooooXoooooooooX          ",
"          XooooooooXoooooooo.        .ooooooXooooooooX          ",
"          XoooooooXooooooooo. XXXX   .oooooooXoooooooX          ",
"          XooooooXoooooooooo. X      .ooooooooXooooooX          ",
"          XoooooXooooooooooo.        .oooooooooXoooooX          ",
"          XooooXoooooooooooo..........ooooooooooXooooX          ",
"          XooooXoooooooooooooooooooooooooooooooooXoooX          ",
"          XoooXoooooooooooooooooooooooooooooooooooXooX          ",
"          XooXooooooooooooooooooooooooooooooooooooXooX          ",
"          XoXooooooooooooooooooooooooooooooooooooooXoX          ",
"          XXooooooooooooooooooooooooooooooooooooooooXX          ",
"          XXXXXXXXXXXXXXXXXXXXXXXXXXXXXXXXXXXXXXXXXXXX          ",
"                                                                ",
"                                                                ",
"                                                                ",
"                                                                ",
"                                                                ",
"                                                                ",
"                                                                ",
"                                                                ",
"                                                                ",
"                                                                ",
"                                                                ",
"                                                                ",
"                                                                ",
"                                                                ",
"                                                                ",
"                                                                "};
