/* XPM */
static char * tedmain_xpm[] = {
"64 64 5 1",
" 	c #FFFFFFFFFFFF",
".	c #FAFA13134040",
"X	c #6C6C6C6C6C6C",
"o	c #FFFFFFFF0000",
"O	c #000000000000",
"                                                                ",
"                                                                ",
"                                                                ",
"                                                                ",
"                                                                ",
"                                                                ",
"                                                                ",
"                                                                ",
"                                                                ",
"                                                                ",
"                                                                ",
"                          ...........              ....         ",
"                          ..  ...  ..               ...         ",
"                          .   ...   .               ...         ",
"                              ...                   ..          ",
"                             ...                   ...          ",
"               XXXXXXXXXXXXXX...XXXXXXX....XX   .. ...          ",
"               XXXXXXXXXXXXXX...XXXXX...X...X ... ....          ",
"               XX        o   ...     ..  ...X ..   ..           ",
"               XX            ..     ... ...XX...   ..           ",
"               XX           ...     .....  XX...   ..           ",
"               XX           ...     ...   ..X...  ...           ",
"               XX           ...     .... ..XX... .... .         ",
"               XX          .....     ..... XX .... ...          ",
"               XX                          XX                   ",
"               XX                          XX                   ",
"               XX     OOO            XXXXXXXXXXXXXXXX           ",
"               XX    OO OO           XXXXXXXXXXXXXXXX           ",
"               XX    OO OO           XX    XX      XX           ",
"               XX       OO           XX    XX      XX           ",
"               XX      OO            XX    XX      XX           ",
"               XX     OO             XX    XX      XX           ",
"               XX     OO             XX    XX      XX           ",
"               XX                    XX    XX      XX           ",
"               XX     OO             XX    XX      XX           ",
"               XX     OO             XX    XX      XX           ",
"               XX                    XX    XX      XX           ",
"               XX                    XX    XX      XX           ",
"               XXXXXXXXXXXXXXXXXXXXXXXXXXXXXX      XX           ",
"               XXXXXXXXXXXXXXXXXXXXXXXXXXXXXX      XX           ",
"                                     XX            XX           ",
"                                     XX            XX           ",
"                                     XX            XX           ",
"                                     XX            XX           ",
"                                     XX            XX           ",
"                                     XX            XX           ",
"                                     XX            XX           ",
"                                     XX            XX           ",
"                                     XX            XX           ",
"                                     XXXXXXXXXXXXXXXX           ",
"                                     XXXXXXXXXXXXXXXX           ",
"                                                                ",
"                                                                ",
"                                                                ",
"                                                                ",
"                                                                ",
"                                                                ",
"                                                                ",
"                                                                ",
"                                                                ",
"                                                                ",
"                                                                ",
"                                                                ",
"                                                                "};
