/* XPM */
static char * tedprops_xpm[] = {
"64 64 5 1",
" 	c #FFFFFFFFFFFF",
".	c #FFFF10404103",
"X	c #69A66DB669A6",
"o	c #FFFFFFFF0000",
"O	c #000000000000",
"                                                                ",
"                                                                ",
"                                                                ",
"                                                                ",
"                                                                ",
"                                                                ",
"                                                                ",
"                                                                ",
"                                                                ",
"                                                                ",
"                                                                ",
"                           ...........              ....        ",
"                           ..  ...  ..               ...        ",
"                           .   ...   .               ...        ",
"                               ...                   ..         ",
"                              ...                   ...         ",
"               XXXXXXXXXXXXXXX...XXXXX  ....     .. ...         ",
"               X              ...    X... ...  ... ....         ",
"               X          o   ...    X..  ...  ..   ..          ",
"               X  O O O       ..     ... ...  ...   ..          ",
"               X  OOOOOOO    ...     .....    ...   ..          ",
"               X             ...     ...   .. ...  ...          ",
"               X             ...     .... ..  ... .... .        ",
"               X  OO OOOO OO.....    X.....    .... ...         ",
"               X                     X                          ",
"               X  OOOOO OOO OOOOOO   X                          ",
"               X                     X                          ",
"               X  OOOXXXXXOO OO OO   X                          ",
"               X    XXXXXXX          X                          ",
"               X  OOXXOOOXXO OO OO   X                          ",
"               X    XX   XX          X                          ",
"               X  OO OOOXXX O        X                          ",
"               X       XXX           X                          ",
"               X      XXX            X                          ",
"               X      XX             X                          ",
"               X      XX             X                          ",
"               X      XX             X                          ",
"               X  OOO OOO OOOO OO    X                          ",
"               X                     X                          ",
"               X  OO OXXOOO OOO OO   X                          ",
"               X      XX             X                          ",
"               X  OO OOO OOO OOO O   X                          ",
"               X                     X                          ",
"               X  OOO OOO OOO OO O   X                          ",
"               X                     X                          ",
"               X  OOOO OOOO          X                          ",
"               X                     X                          ",
"               X                     X                          ",
"               X                     X                          ",
"               XXXXXXXXXXXXXXXXXXXXXXX                          ",
"                                                                ",
"                                                                ",
"                                                                ",
"                                                                ",
"                                                                ",
"                                                                ",
"                                                                ",
"                                                                ",
"                                                                ",
"                                                                ",
"                                                                ",
"                                                                ",
"                                                                ",
"                                                                "};
