/* XPM */
static char * tedprint_xpm[] = {
"64 64 5 1",
" 	c #FFFFFFFFFFFF",
".	c #6C6C6C6C6C6C",
"X	c #C4C4C4C4C4C4",
"o	c #FAFA13134040",
"O	c #000000000000",
"                                                                ",
"                                                                ",
"                                                                ",
"                                                                ",
"                                                                ",
"                                                                ",
"                             .                                  ",
"                             ...                                ",
"                            .XXX..                              ",
"                           .XXXXXX..                            ",
"                          .XXXXXXXXX..                          ",
"                         .oooooooooooX..           oooo         ",
"                        .XooXXoooXXooXXX..          ooo         ",
"                        .XoXXXoooXXXoXXXXX..        ooo         ",
"                       .XXXXXXoooXXXXXXXXXXX..      oo          ",
"                      .XXXXXXooo..XXXXXXXXXXXX..   ooo          ",
"                     .XXXXXXXooo....XXXooooXXXXXoo ooo          ",
"                    .XXXXXXX.ooo.....oooXoooXXoooXoooo          ",
"                   .XXooXXX..ooo.....oo.XoooXXooXXXoo.          ",
"                  .XXXXXXX...ooXOO..ooo.oooXXoooXXXoo.          ",
"                 .XXooXXX...oooXXXOOooooo...XoooXXXoo.          ",
"                .XXXXXXX..OOoooOOOXXooo...oo.oooXXooo.          ",
"               .XXooXXX..OXXooo   OOoooo.oo..oooXoooo.o         ",
"              .XXXXXXX..OXXooooo    Oooooo....ooooXooo          ",
"             .XXooXXX.OOXXXXO         OOXXOO.XXX.XXXX.          ",
"            .XXXXXXX.OXXXXXO            OXX.XXX.XXXXX.          ",
"           .XXXXXXXXX..XXXO            OXX.XXXX.XXXXX.          ",
"          ..XXXXXXXXXXX..O            OXX.XXXX.XXXXXX.          ",
"          .X..XXXXXXXXXXO            OXX.XXXXX.XXXXXX.          ",
"          .XXX..XXXXXXXO            OXX.XXXXX.XXXXXXX.          ",
"          .XXXXX..XXXXXXOO         OXX.XXXXX.XXXXXXXX.          ",
"          .XXXXXXX..XXXXXXO       OXX.XXXXX.XXXXXX.XX.          ",
"          .XXXXXXXXX..XXXXXOO    O.X.XXXXX.XXXXXX.XXX.          ",
"          .XXXXXXXXXXX..XXXXXOO OXX.XXXXX.XXXXXX.X.XX.          ",
"          .XXXXXXXXXXXXX..XXXXXOXXXXXXXX.XXXXXX.X.XXX.          ",
"          .XXXXXXXXXXXXXXX..XXXXXXXXXXX.XXXXXXXX.X.XX.          ",
"          .XX.XXXXXXXXXXXXXX..XXXXXXXX.XXXXXXXX.X.XXX.          ",
"          .XX...XXXXXXXXXXXXXX..XXXXX.XXXXXXXXXX.X.XX.          ",
"          .XX.XX..XXXXXXXXXXXXXX..XX.XXXXXXXXXX.X.XX.           ",
"          .XX.XXXX..XXXXXXXXXXXXXX..XXXXXXXXXXXX.XX.            ",
"          .XX.XXXXXX..XXXXXXXXXXXXX.XXXXXXXXXXX.XX.             ",
"          .XX..XXXXXXX..XXXXXXXXXXX.XXXXXXXXXXXXX.              ",
"          .XXXX..XXXXXXX..XXXXXXXXX.XXXXXXXXXXXX.               ",
"          .XXXXXX..XXXXXXX..XXXXXXX.XXXXXXXXXXX.                ",
"           ..XXXXXX..XXXXXXX...XXXX.XXXXXXXXXX.                 ",
"             ..XXXXXX..XXXXXXX.XXXX.XXXXXXXXX.                  ",
"               ..XXXXXX..XXXXX.XXXX.XXXXXXXX.                   ",
"                 ..XXXXXX..XXX.XXXX.XXXXXXX.                    ",
"                   ..XXXXXX..X.XXXX.XXXXXX.                     ",
"                     ..XXXXXX..XXXX.XXXXX.                      ",
"                       ..XXXXXXXXXX.XXXX.                       ",
"                         ..XXXXXXXX.XXX.                        ",
"                           ..XXXXXX.XX.                         ",
"                             ..XXXX.X.                          ",
"                               ..XX..                           ",
"                                 ...                            ",
"                                                                ",
"                                                                ",
"                                                                ",
"                                                                ",
"                                                                ",
"                                                                ",
"                                                                ",
"                                                                "};
