/* XPM */
static char * tedpage_xpm[] = {
"64 64 6 1",
" 	c #FFFFFFFFFFFF",
".	c #51515151FBFB",
"X	c #FAFA13134040",
"o	c #6C6C6C6C6C6C",
"O	c #FFFFFFFF0000",
"+	c #000000000000",
"                                                                ",
"                                                                ",
"                                                                ",
"                                                                ",
"                                                                ",
"                                                                ",
"                                                                ",
"                                                                ",
"                    .                 .                         ",
"                    .                 .                         ",
"                    .                 .                         ",
"                  .....             .....                       ",
"                   ...      XXXXXXXXXXX.             XXXX       ",
"                ooooooooooooXXooXXXooXXoooo           XXX       ",
"                o           X   XXX   X   o           XXX       ",
"                o   .           XXX   .   o           XX        ",
"                o              XXX        o          XXX        ",
"              . o   .      O   XXX    .  XXXX     XX XXX        ",
"              ..o              XXX     XXXoXXX  XXX XXXX        ",
"          ......o . oooooooooooXXXoooooXX oXXX..XX   XX         ",
"              ..o   o++++++ +++XX++++ XXX XXX  XXX   XX         ",
"              . o   o         XXX     XXXXX .  XXX   XX         ",
"                o   o+++++ +++XXX++++ XXX o XX XXX  XXX         ",
"                o   o         XXX     XXXXoXX  XXX XXXX X       ",
"                o   o+++ ++++XXXXX++  oXXXXX    XXXX XXX        ",
"                o   o                 o   o                     ",
"                o   o++++ +++         o   o                     ",
"                o   o                 o   o                     ",
"                o   o                 o   o                     ",
"                o   o+++++++ ++++++   o   o                     ",
"                o   o                 o   o                     ",
"                o   o++++ +++ +++     o   o                     ",
"                o   o                 o   o                     ",
"                o   +++++++ ++++++++  o   o                     ",
"                o   o                 o   o                     ",
"                o   o+++++++ +++++    o   o                     ",
"                o   o                 o   o                     ",
"                o   o++++++++ ++++    o   o                     ",
"                o   o                 o   o                     ",
"                o   o                 o   o                     ",
"                o   o++++++ +++++++   o   o                     ",
"                o   o                 o   o                     ",
"                o   o++++++++ ++++++  o   o                     ",
"                o   o                 o   o                     ",
"              . o   +++++++ +++++++   o   o .                   ",
"          ......o . ooooooooooooooooooo . o......               ",
"              ..o                         o..                   ",
"              . o   .                 .   o .                   ",
"                o   .                 .   o                     ",
"                o                         o                     ",
"                ooooooooooooooooooooooooooo                     ",
"                   ...               ...                        ",
"                  .....             .....                       ",
"                    .                 .                         ",
"                    .                 .                         ",
"                    .                 .                         ",
"                                                                ",
"                                                                ",
"                                                                ",
"                                                                ",
"                                                                ",
"                                                                ",
"                                                                ",
"                                                                "};
