/* XPM */
static char * tedspell_xpm[] = {
"64 64 4 1",
" 	c #FFFFFFFFFFFF",
".	c #FAFA13134040",
"X	c #FFFFFFFF0000",
"o	c #6C6C6C6C6C6C",
"                                                                ",
"                                                                ",
"                                                                ",
"                                                                ",
"                                                                ",
"                                                                ",
"                                                                ",
"                                                                ",
"                                                                ",
"                                                                ",
"                                                                ",
"                          ...........              ....         ",
"                          ..  ...  ..               ...         ",
"                          .   ...   .               ...         ",
"                              ...                   ..          ",
"                             ...                   ...          ",
"                             ...       ....     .. ...          ",
"                             ...     ... ...  ... ....          ",
"                         X   ...     ..  ...  ..   ..           ",
"                             ..     ... ...  ...   ..           ",
"                            ...     .....    ...   ..           ",
"                            ...     ...   .. ...  ...           ",
"                            ...     .... ..  ... .... .         ",
"                           .....     .....    .... ...          ",
"                                                                ",
"                                                                ",
"                                                                ",
"                                                                ",
"                                                                ",
"                                                                ",
"                                                                ",
"                                                                ",
"                                                                ",
"                                                                ",
"                                            oo                  ",
"                                            oo                  ",
"                                            oo                  ",
"                                           oo                   ",
"                                           oo                   ",
"                                           oo                   ",
"                                           oo                   ",
"                                     .    oo                    ",
"                                    ...   oo   oo               ",
"                                     ..   oo   oo               ",
"                                     ...       oo               ",
"               oooo   oo oo    oooo   ..ooo   oo                ",
"              oo  oo  ooo oo  oo  oo  ... oo  oo                ",
"              ooo     oo  oo oo  ooo oo..ooo  oo                ",
"               ooo   oo   oo ooooo   oo...    oo                ",
"                ooo  oo  oo  oo      oo ..   oo                 ",
"             oo  oo  oo  oo  oo  oo  oo ...  oo                 ",
"              oooo   ooooo    oooo    ooo..  oo                 ",
"                    oo                   ...                    ",
"                    oo                    ..                    ",
"                                          ..                    ",
"                                                                ",
"                                                                ",
"                                                                ",
"                                                                ",
"                                                                ",
"                                                                ",
"                                                                ",
"                                                                ",
"                                                                "};
