/* XPM */
static char * tedsymbol_xpm[] = {
"64 64 4 1",
" 	c #FFFFFFFFFFFF",
".	c #FFFF10404103",
"X	c #FFFFFFFF0000",
"o	c #69A66DB669A6",
"                                                                ",
"                                                                ",
"                                                                ",
"                                                                ",
"                                                                ",
"                                                                ",
"                                                                ",
"                                                                ",
"                                                                ",
"                                                                ",
"                                                                ",
"                          ...........              ....         ",
"                          ..  ...  ..               ...         ",
"                          .   ...   .               ...         ",
"                              ...                   ..          ",
"                             ...                   ...          ",
"                             ...       ....     .. ...          ",
"                             ...     ... ...  ... ....          ",
"                         X   ...     ..  ...  ..   ..           ",
"                             ..     ... ...  ...   ..           ",
"                            ...     .....    ...   ..           ",
"                            ...     ...   .. ...  ...           ",
"                            ...     .... ..  ... .... .         ",
"                           .....     .....    .... ...          ",
"                                                                ",
"                                                                ",
"                                                                ",
"             oo                                                 ",
"               o                                                ",
"              o                                                 ",
"               o                                                ",
"             oo     ooooooooooooooooooooooo                     ",
"                    o                          o o o            ",
"                   o                            ooo             ",
"                   o                           oo oo            ",
"            oo     o                            ooo             ",
"          oo o    o                            o o o            ",
"             o    o                                             ",
"              o  o                                              ",
"              o  o                                              ",
"              o  o                                              ",
"              o o                                               ",
"              o o   oooo oo o oooo   oo ooo   ooo    o          ",
"               oo   o  o  o o o  o   o   o o oo oo   oo         ",
"               o     o    o o o  oo oo   oo  o   o  o  o        ",
"               o     o    ooooo  o o o   o o o   o  o  o        ",
"                    o  o    o    o o o   o o oo oo  o  o        ",
"                    oooo   ooo  oo o oo ooo   ooo  oo  oo       ",
"                                                                ",
"                                                                ",
"                                                                ",
"                                                                ",
"                                                                ",
"                                                                ",
"                                                                ",
"                                                                ",
"                                                                ",
"                                                                ",
"                                                                ",
"                                                                ",
"                                                                ",
"                                                                ",
"                                                                ",
"                                                                "};
