/* XPM */
static char * tedtable_xpm[] = {
"64 64 4 1",
" 	c #FFFFFFFFFFFF",
".	c #FFFF14514103",
"X	c #69A66DB669A6",
"o	c #FFFFFFFF0000",
"                                                                ",
"                                                                ",
"                                                                ",
"                                                                ",
"                                                                ",
"                                                                ",
"                                                                ",
"                                                                ",
"                                                                ",
"                                                                ",
"                                                                ",
"                           ...........              ....        ",
"                           ..  ...  ..               ...        ",
"                           .   ...   .               ...        ",
"                               ...                   ..         ",
"               XXXXXXXXXXXXXXX...XXXXXXXXXXXX       ...         ",
"               X      X       ...X      ....X    .. ...         ",
"               X      X       ...X    ... ...  ... ....         ",
"               X      X   o   ...X    ..  ...  ..   ..          ",
"               X      X       .. X   ... ...X ...   ..          ",
"               X      X      ... X   .....  X ...   ..          ",
"               X      X      ... X   ...   .. ...  ...          ",
"               X      X      ... X   .... ..X ... .... .        ",
"               XXXXXXXXXXXXX.....XXXXX.....XX  .... ...         ",
"               X      X          X          X                   ",
"               X      X          X          X                   ",
"               X      X          X          X                   ",
"               X      X          X          X                   ",
"               X      X          X          X                   ",
"               X      X          X          X                   ",
"               X      X          X          X                   ",
"               X      X          X          X                   ",
"               X      X          X          X                   ",
"               XXXXXXXXXXXXXXXXXXXXXXXXXXXXXX                   ",
"               X      X          X          X                   ",
"               X      X          X          X                   ",
"               X      X          X          X                   ",
"               X      X          X          X                   ",
"               X      X          X          X                   ",
"               X      X          X          X                   ",
"               X      X          X          X                   ",
"               X      X          X          X                   ",
"               XXXXXXXXXXXXXXXXXXXXXXXXXXXXXX                   ",
"               X      X          X          X                   ",
"               X      X          X          X                   ",
"               X      X          X          X                   ",
"               X      X          X          X                   ",
"               X      X          X          X                   ",
"               XXXXXXXXXXXXXXXXXXXXXXXXXXXXXX                   ",
"                                                                ",
"                                                                ",
"                                                                ",
"                                                                ",
"                                                                ",
"                                                                ",
"                                                                ",
"                                                                ",
"                                                                ",
"                                                                ",
"                                                                ",
"                                                                ",
"                                                                ",
"                                                                ",
"                                                                "};
